<svg width="150" height="70" viewBox="0 0 150 70" fill="none" xmlns="http://www.w3.org/2000/svg">
<path d="M0 38.1687V0H9.70853V38.1687H0Z" fill="#9DB6FF"/>
<path d="M30.5297 38.6318C27.2594 38.6318 24.398 38.0144 21.9452 36.78C19.5266 35.5111 17.636 33.7964 16.2734 31.6359C14.9448 29.4412 14.2806 26.9548 14.2806 24.177C14.2806 21.3992 14.9278 18.9301 16.2222 16.7696C17.5508 14.5749 19.3733 12.8773 21.6897 11.677C24.0062 10.4425 26.6121 9.8252 29.5077 9.8252C32.2329 9.8252 34.7196 10.391 36.9678 11.5227C39.2162 12.6201 41.0046 14.2491 42.3332 16.4095C43.6617 18.57 44.3259 21.1934 44.3259 24.28C44.3259 24.6228 44.309 25.0173 44.2748 25.463C44.2407 25.9088 44.2067 26.3204 44.1726 26.6976H22.2518V21.5536H39.0117L35.3328 22.9938C35.3669 21.725 35.1284 20.6277 34.6175 19.7017C34.1405 18.7758 33.4592 18.0556 32.5736 17.5413C31.7219 17.0269 30.717 16.7696 29.5587 16.7696C28.4006 16.7696 27.3786 17.0269 26.4929 17.5413C25.6413 18.0556 24.977 18.7929 24.5001 19.7532C24.0231 20.6792 23.7848 21.7765 23.7848 23.0453V24.5371C23.7848 25.9088 24.0572 27.092 24.6023 28.0866C25.1814 29.081 25.9989 29.8526 27.0549 30.4014C28.1109 30.9157 29.3714 31.173 30.8361 31.173C32.1987 31.173 33.357 30.9843 34.3109 30.607C35.2988 30.1956 36.2696 29.5784 37.2234 28.7552L42.3332 34.105C41.0046 35.5797 39.3695 36.7114 37.4277 37.5C35.4861 38.2546 33.1866 38.6318 30.5297 38.6318Z" fill="#9DB6FF"/>
<path d="M48.8022 38.1688V10.2882H58.0508V18.4157L56.6712 16.1009C57.4887 14.009 58.8173 12.4487 60.6567 11.4198C62.4963 10.3567 64.7276 9.8252 67.3506 9.8252V18.6215C66.9077 18.5529 66.516 18.5187 66.1754 18.5187C65.8688 18.4843 65.5281 18.4672 65.1534 18.4672C63.1776 18.4672 61.5765 19.0158 60.3503 20.1133C59.1239 21.1763 58.5107 22.9254 58.5107 25.3602V38.1688H48.8022Z" fill="#9DB6FF"/>
<path d="M89.0557 38.889C86.1944 38.889 83.5544 38.4261 81.1358 37.5C78.7172 36.5742 76.605 35.2711 74.7996 33.5906C73.0283 31.8759 71.6486 29.887 70.6607 27.6235C69.6728 25.3602 69.179 22.8739 69.179 20.1648C69.179 17.4555 69.6728 14.9692 70.6607 12.7059C71.6486 10.4425 73.0283 8.47061 74.7996 6.79022C76.605 5.07555 78.7172 3.75524 81.1358 2.82931C83.5544 1.90338 86.1944 1.44043 89.0557 1.44043C91.9513 1.44043 94.5913 1.90338 96.9759 2.82931C99.3945 3.75524 101.49 5.07555 103.261 6.79022C105.032 8.47061 106.412 10.4425 107.4 12.7059C108.422 14.9692 108.933 17.4555 108.933 20.1648C108.933 22.8739 108.422 25.3773 107.4 27.675C106.412 29.9383 105.032 31.9103 103.261 33.5906C101.49 35.2711 99.3945 36.5742 96.9759 37.5C94.5913 38.4261 91.9513 38.889 89.0557 38.889ZM89.0557 30.4527C90.4184 30.4527 91.6788 30.2127 92.8371 29.7327C94.0293 29.2525 95.0513 28.5666 95.903 27.675C96.7885 26.7491 97.4698 25.6517 97.9468 24.3828C98.4577 23.1139 98.7132 21.7079 98.7132 20.1648C98.7132 18.5873 98.4577 17.1812 97.9468 15.9466C97.4698 14.6777 96.7885 13.5975 95.903 12.7059C95.0513 11.7799 94.0293 11.0769 92.8371 10.5968C91.6788 10.1167 90.4184 9.87665 89.0557 9.87665C87.6931 9.87665 86.4158 10.1167 85.2236 10.5968C84.0653 11.0769 83.0433 11.7799 82.1577 12.7059C81.306 13.5975 80.6247 14.6777 80.1138 15.9466C79.6368 17.1812 79.3985 18.5873 79.3985 20.1648C79.3985 21.7079 79.6368 23.1139 80.1138 24.3828C80.6247 25.6517 81.306 26.7491 82.1577 27.675C83.0433 28.5666 84.0653 29.2525 85.2236 29.7327C86.4158 30.2127 87.6931 30.4527 89.0557 30.4527Z" fill="#FF4949"/>
<path d="M123.276 30.1954L122.714 18.7756L138.094 2.1604H149.233L133.904 18.8784L128.284 24.7942L123.276 30.1954ZM114.232 38.1686V2.1604H124.247V38.1686H114.232ZM138.247 38.1686L126.597 23.3024L133.189 16.2037L150 38.1686H138.247Z" fill="#FF4949"/>
<path d="M44.322 55.3466C45.09 55.3466 45.768 55.5022 46.356 55.8133C46.944 56.1244 47.4 56.5973 47.724 57.232C48.06 57.8666 48.228 58.6693 48.228 59.64V65.3333H46.5V59.8453C46.5 58.8871 46.284 58.1653 45.852 57.68C45.42 57.1946 44.814 56.952 44.034 56.952C43.458 56.952 42.954 57.0764 42.522 57.3253C42.09 57.5742 41.754 57.9413 41.514 58.4266C41.286 58.912 41.172 59.5155 41.172 60.2373V65.3333H39.444V59.8453C39.444 58.8871 39.228 58.1653 38.796 57.68C38.376 57.1946 37.77 56.952 36.978 56.952C36.414 56.952 35.916 57.0764 35.484 57.3253C35.052 57.5742 34.716 57.9413 34.476 58.4266C34.236 58.912 34.116 59.5155 34.116 60.2373V65.3333H32.388V55.44H34.044V58.072L33.774 57.4C34.074 56.7529 34.536 56.2489 35.16 55.888C35.784 55.5271 36.51 55.3466 37.338 55.3466C38.25 55.3466 39.036 55.5831 39.696 56.056C40.356 56.5164 40.788 57.2195 40.992 58.1653L40.29 57.8666C40.578 57.1075 41.082 56.4977 41.802 56.0373C42.522 55.5769 43.362 55.3466 44.322 55.3466ZM57.3296 65.3333V63.2426L57.2395 62.8506V59.2853C57.2395 58.5262 57.0236 57.9413 56.5916 57.5306C56.1716 57.1075 55.5356 56.896 54.6836 56.896C54.1196 56.896 53.5676 56.9955 53.0276 57.1946C52.4876 57.3813 52.0316 57.6364 51.6596 57.96L50.9396 56.616C51.4316 56.2053 52.0196 55.8942 52.7036 55.6826C53.3996 55.4586 54.1256 55.3466 54.8816 55.3466C56.1896 55.3466 57.1975 55.6764 57.9056 56.336C58.6136 56.9955 58.9676 58.0035 58.9676 59.36V65.3333H57.3296ZM54.1975 65.4453C53.4895 65.4453 52.8656 65.3209 52.3256 65.072C51.7976 64.8231 51.3896 64.4809 51.1016 64.0453C50.8136 63.5973 50.6696 63.0933 50.6696 62.5333C50.6696 61.9982 50.7896 61.5129 51.0296 61.0773C51.2816 60.6417 51.6836 60.2933 52.2356 60.032C52.7996 59.7706 53.5556 59.64 54.5036 59.64H57.5276V60.928H54.5756C53.7116 60.928 53.1296 61.0773 52.8296 61.376C52.5296 61.6746 52.3796 62.0355 52.3796 62.4586C52.3796 62.944 52.5655 63.336 52.9375 63.6346C53.3095 63.9209 53.8256 64.064 54.4856 64.064C55.1336 64.064 55.6975 63.9146 56.1775 63.616C56.6695 63.3173 57.0236 62.8817 57.2395 62.3093L57.5816 63.5413C57.3535 64.1262 56.9515 64.5929 56.3755 64.9413C55.7995 65.2773 55.0735 65.4453 54.1975 65.4453ZM67.2594 55.3466C68.0394 55.3466 68.7234 55.5022 69.3114 55.8133C69.9114 56.1244 70.3794 56.5973 70.7154 57.232C71.0514 57.8666 71.2194 58.6693 71.2194 59.64V65.3333H69.4914V59.8453C69.4914 58.8871 69.2634 58.1653 68.8074 57.68C68.3634 57.1946 67.7334 56.952 66.9174 56.952C66.3054 56.952 65.7714 57.0764 65.3154 57.3253C64.8594 57.5742 64.5054 57.9413 64.2534 58.4266C64.0134 58.912 63.8934 59.5155 63.8934 60.2373V65.3333H62.1654V55.44H63.8214V58.1093L63.5514 57.4C63.8634 56.7529 64.3434 56.2489 64.9914 55.888C65.6394 55.5271 66.3954 55.3466 67.2594 55.3466ZM74.4173 65.3333V55.44H76.1453V65.3333H74.4173ZM75.2812 53.536C74.9453 53.536 74.6633 53.424 74.4353 53.2C74.2193 52.976 74.1113 52.7022 74.1113 52.3786C74.1113 52.0426 74.2193 51.7626 74.4353 51.5386C74.6633 51.3146 74.9453 51.2026 75.2812 51.2026C75.6173 51.2026 75.8932 51.3146 76.1092 51.5386C76.3372 51.7502 76.4512 52.0177 76.4512 52.3413C76.4512 52.6773 76.3433 52.9635 76.1273 53.2C75.9113 53.424 75.6293 53.536 75.2812 53.536ZM83.6027 65.4453C82.6307 65.4453 81.7607 65.2275 80.9926 64.792C80.2366 64.3564 79.6427 63.7591 79.2106 63C78.7786 62.2409 78.5627 61.3697 78.5627 60.3866C78.5627 59.4035 78.7786 58.5324 79.2106 57.7733C79.6427 57.0142 80.2366 56.4231 80.9926 56C81.7607 55.5644 82.6307 55.3466 83.6027 55.3466C84.4667 55.3466 85.2346 55.5271 85.9067 55.888C86.5906 56.2364 87.1186 56.7591 87.4907 57.456L86.1767 58.3333C85.8647 57.848 85.4807 57.4933 85.0247 57.2693C84.5807 57.0329 84.1007 56.9146 83.5846 56.9146C82.9607 56.9146 82.4027 57.0577 81.9107 57.344C81.4187 57.6302 81.0286 58.0346 80.7407 58.5573C80.4527 59.0675 80.3087 59.6773 80.3087 60.3866C80.3087 61.096 80.4527 61.712 80.7407 62.2346C81.0286 62.7573 81.4187 63.1617 81.9107 63.448C82.4027 63.7342 82.9607 63.8773 83.5846 63.8773C84.1007 63.8773 84.5807 63.7653 85.0247 63.5413C85.4807 63.3049 85.8647 62.944 86.1767 62.4586L87.4907 63.3173C87.1186 64.0017 86.5906 64.5306 85.9067 64.904C85.2346 65.2649 84.4667 65.4453 83.6027 65.4453ZM93.7419 65.4453C92.9259 65.4453 92.2059 65.2897 91.5819 64.9786C90.9699 64.6675 90.4899 64.1946 90.1419 63.56C89.8059 62.9129 89.6379 62.104 89.6379 61.1333V55.44H91.3659V60.928C91.3659 61.8986 91.5879 62.6266 92.0319 63.112C92.4879 63.5973 93.1239 63.84 93.9399 63.84C94.5399 63.84 95.0619 63.7155 95.5059 63.4666C95.9499 63.2053 96.2919 62.832 96.5319 62.3466C96.7719 61.8489 96.8919 61.2515 96.8919 60.5546V55.44H98.6199V65.3333H96.9819V62.664L97.2519 63.3733C96.9399 64.0329 96.4719 64.5431 95.8479 64.904C95.2239 65.2649 94.5219 65.4453 93.7419 65.4453ZM101.91 65.3333V55.44H103.566V58.128L103.404 57.456C103.668 56.7715 104.112 56.2489 104.736 55.888C105.36 55.5271 106.128 55.3466 107.04 55.3466V57.0826C106.968 57.0702 106.896 57.064 106.824 57.064C106.764 57.064 106.704 57.064 106.644 57.064C105.72 57.064 104.988 57.3502 104.448 57.9226C103.908 58.4951 103.638 59.3226 103.638 60.4053V65.3333H101.91ZM113.329 65.4453C112.309 65.4453 111.409 65.2275 110.629 64.792C109.861 64.3564 109.261 63.7591 108.829 63C108.409 62.2409 108.199 61.3697 108.199 60.3866C108.199 59.4035 108.403 58.5324 108.811 57.7733C109.231 57.0142 109.801 56.4231 110.521 56C111.253 55.5644 112.075 55.3466 112.987 55.3466C113.911 55.3466 114.727 55.5582 115.435 55.9813C116.143 56.4044 116.695 57.0017 117.091 57.7733C117.499 58.5324 117.703 59.4222 117.703 60.4426C117.703 60.5173 117.697 60.6044 117.685 60.704C117.685 60.8035 117.679 60.8969 117.667 60.984H109.549V59.696H116.767L116.065 60.144C116.077 59.5093 115.951 58.9431 115.687 58.4453C115.423 57.9475 115.057 57.5617 114.589 57.288C114.133 57.0017 113.599 56.8586 112.987 56.8586C112.387 56.8586 111.853 57.0017 111.385 57.288C110.917 57.5617 110.551 57.9537 110.287 58.464C110.023 58.9617 109.891 59.5342 109.891 60.1813V60.48C109.891 61.1395 110.035 61.7306 110.323 62.2533C110.623 62.7635 111.037 63.1617 111.565 63.448C112.093 63.7342 112.699 63.8773 113.383 63.8773C113.947 63.8773 114.457 63.7778 114.913 63.5786C115.381 63.3795 115.789 63.0809 116.137 62.6826L117.091 63.84C116.659 64.3626 116.119 64.7609 115.471 65.0346C114.835 65.3084 114.121 65.4453 113.329 65.4453Z" fill="white"/>
</svg>
