<svg width="20" height="20" viewBox="0 0 20 20" fill="none" xmlns="http://www.w3.org/2000/svg">
<g clip-path="url(#clip0_44_72)">
<mask id="mask0_44_72" style="mask-type:luminance" maskUnits="userSpaceOnUse" x="0" y="0" width="20" height="20">
<path d="M20 0H0V20H20V0Z" fill="white"/>
</mask>
<g mask="url(#mask0_44_72)">
<mask id="mask1_44_72" style="mask-type:luminance" maskUnits="userSpaceOnUse" x="0" y="0" width="20" height="20">
<path d="M20 0H0V20H20V0Z" fill="white"/>
</mask>
<g mask="url(#mask1_44_72)">
<path d="M6.73178 4.40161C6.08745 4.48444 5.4954 4.79929 5.06647 5.28719C4.63755 5.7751 4.40118 6.40263 4.40161 7.05226C4.40338 9.3183 5.30435 11.4911 6.90668 13.0934C8.509 14.6957 10.6818 15.5967 12.9478 15.5985C13.5974 15.5989 14.2249 15.3625 14.7128 14.9336C15.2008 14.5046 15.5156 13.9126 15.5984 13.2683L12.4671 11.933L10.7979 13.048C10.6443 13.1495 10.4671 13.2096 10.2834 13.2225C10.0998 13.2353 9.91592 13.2006 9.74967 13.1214C8.50575 12.5196 7.49955 11.5182 6.89202 10.2771C6.81192 10.1115 6.77598 9.92789 6.78767 9.74422C6.79937 9.56055 6.85831 9.38305 6.95879 9.22889L8.0738 7.53299L6.73178 4.40161Z" fill="#FF7979"/>
<path d="M10 19.375C15.1777 19.375 19.375 15.1777 19.375 10C19.375 4.82233 15.1777 0.625 10 0.625C4.82233 0.625 0.625 4.82233 0.625 10C0.625 15.1777 4.82233 19.375 10 19.375Z" stroke="#FF7979" stroke-width="1.5"/>
</g>
</g>
</g>
<defs>
<clipPath id="clip0_44_72">
<rect width="20" height="20" fill="white"/>
</clipPath>
</defs>
</svg>
