<svg width="28" height="28" viewBox="0 0 28 28" fill="none" xmlns="http://www.w3.org/2000/svg">
<g clip-path="url(#clip0_44_2)">
<mask id="mask0_44_2" style="mask-type:luminance" maskUnits="userSpaceOnUse" x="0" y="0" width="28" height="28">
<path d="M28 0H0V28H28V0Z" fill="white"/>
</mask>
<g mask="url(#mask0_44_2)">
<mask id="mask1_44_2" style="mask-type:luminance" maskUnits="userSpaceOnUse" x="0" y="0" width="28" height="28">
<path d="M28 0H0V28H28V0Z" fill="white"/>
</mask>
<g mask="url(#mask1_44_2)">
<path d="M9.4245 6.16211C8.52243 6.27808 7.69356 6.71885 7.09306 7.40193C6.49258 8.085 6.16166 8.96353 6.16226 9.87302C6.16474 13.0455 7.42609 16.0873 9.66936 18.3306C11.9126 20.5739 14.9545 21.8353 18.1269 21.8377C19.0364 21.8383 19.9149 21.5073 20.598 20.9068C21.2811 20.3063 21.7218 19.4775 21.8378 18.5755L17.4539 16.706L15.1171 18.267C14.9021 18.4091 14.6539 18.4933 14.3968 18.5113C14.1397 18.5293 13.8823 18.4806 13.6495 18.3698C11.9081 17.5273 10.4994 16.1254 9.64883 14.3878C9.53669 14.1559 9.48638 13.8989 9.50274 13.6418C9.51912 13.3846 9.60164 13.1361 9.74231 12.9203L11.3033 10.546L9.4245 6.16211Z" fill="#314170"/>
<path d="M14 27.125C21.2487 27.125 27.125 21.2487 27.125 14C27.125 6.75126 21.2487 0.875 14 0.875C6.75126 0.875 0.875 6.75126 0.875 14C0.875 21.2487 6.75126 27.125 14 27.125Z" stroke="#314170" stroke-width="1.5"/>
</g>
</g>
</g>
<defs>
<clipPath id="clip0_44_2">
<rect width="28" height="28" fill="white"/>
</clipPath>
</defs>
</svg>
