<svg width="20" height="20" viewBox="0 0 20 20" fill="none" xmlns="http://www.w3.org/2000/svg">
<g clip-path="url(#clip0_44_104)">
<mask id="mask0_44_104" style="mask-type:luminance" maskUnits="userSpaceOnUse" x="0" y="0" width="20" height="20">
<path d="M20 0H0V20H20V0Z" fill="white"/>
</mask>
<g mask="url(#mask0_44_104)">
<path d="M9.99999 19.4642C15.227 19.4642 19.4643 15.2269 19.4643 9.99993C19.4643 4.77295 15.227 0.535645 9.99999 0.535645C4.77301 0.535645 0.535706 4.77295 0.535706 9.99993C0.535706 15.2269 4.77301 19.4642 9.99999 19.4642Z" stroke="#FF7979" stroke-width="1.5"/>
<path d="M15.7143 9.99993C15.7143 11.5154 15.1122 12.9689 14.0406 14.0406C12.969 15.1121 11.5155 15.7142 9.99999 15.7142C8.48449 15.7142 7.03102 15.1121 5.95938 14.0406C4.88774 12.9689 4.28571 11.5154 4.28571 9.99993C4.28571 8.48443 4.88774 7.03096 5.95938 5.95932C7.03102 4.88768 8.48449 4.28564 9.99999 4.28564C11.5155 4.28564 12.969 4.88768 14.0406 5.95932C15.1122 7.03096 15.7143 8.48443 15.7143 9.99993ZM10.205 8.50422C9.64928 8.73564 8.53785 9.21422 6.87213 9.93993C6.60213 10.0471 6.45999 10.1528 6.44713 10.2556C6.42571 10.4292 6.64356 10.4978 6.93999 10.5914L7.06499 10.6306C7.35642 10.7256 7.74928 10.8364 7.95285 10.8406C8.13856 10.8449 8.34499 10.7692 8.57285 10.6121C10.1293 9.56136 10.9328 9.03064 10.9828 9.01922C11.0186 9.01064 11.0686 9.00064 11.1014 9.03064C11.135 9.05993 11.1314 9.11636 11.1278 9.13136C11.1064 9.2235 10.2514 10.0178 9.80928 10.4292C9.67142 10.5578 9.57356 10.6485 9.55356 10.6692C9.50949 10.7142 9.46478 10.7585 9.41928 10.8021C9.14785 11.0635 8.94499 11.2592 9.42999 11.5792C9.66356 11.7335 9.85071 11.8599 10.0371 11.9871C10.24 12.1256 10.4428 12.2635 10.7057 12.4364C10.7721 12.4792 10.8364 12.5256 10.8986 12.5699C11.135 12.7385 11.3486 12.8899 11.6107 12.8656C11.7636 12.8514 11.9214 12.7085 12.0014 12.2799C12.1907 11.2678 12.5628 9.07564 12.6486 8.17207C12.6538 8.09693 12.6507 8.0215 12.6393 7.94707C12.6326 7.887 12.6035 7.83172 12.5578 7.79207C12.4928 7.74722 12.4153 7.72393 12.3364 7.72564C12.1221 7.72922 11.7914 7.84422 10.205 8.50422Z" fill="#FF7979"/>
</g>
</g>
<defs>
<clipPath id="clip0_44_104">
<rect width="20" height="20" fill="white"/>
</clipPath>
</defs>
</svg>
