<svg width="28" height="28" viewBox="0 0 28 28" fill="none" xmlns="http://www.w3.org/2000/svg">
<g clip-path="url(#clip0_44_20)">
<mask id="mask0_44_20" style="mask-type:luminance" maskUnits="userSpaceOnUse" x="0" y="0" width="28" height="28">
<path d="M28 0H0V28H28V0Z" fill="white"/>
</mask>
<g mask="url(#mask0_44_20)">
<path d="M14 27.25C21.3178 27.25 27.25 21.3178 27.25 14C27.25 6.68223 21.3178 0.75 14 0.75C6.68223 0.75 0.75 6.68223 0.75 14C0.75 21.3178 6.68223 27.25 14 27.25Z" stroke="#314170" stroke-width="1.5"/>
<path d="M22 14C22 16.1217 21.1571 18.1566 19.6569 19.6569C18.1566 21.1571 16.1217 22 14 22C11.8783 22 9.84344 21.1571 8.34315 19.6569C6.84285 18.1566 6 16.1217 6 14C6 11.8783 6.84285 9.84344 8.34315 8.34315C9.84344 6.84285 11.8783 6 14 6C16.1217 6 18.1566 6.84285 19.6569 8.34315C21.1571 9.84344 22 11.8783 22 14ZM14.287 11.906C13.509 12.23 11.953 12.9 9.621 13.916C9.243 14.066 9.044 14.214 9.026 14.358C8.996 14.601 9.301 14.697 9.716 14.828L9.891 14.883C10.299 15.016 10.849 15.171 11.134 15.177C11.394 15.183 11.683 15.077 12.002 14.857C14.181 13.386 15.306 12.643 15.376 12.627C15.426 12.615 15.496 12.601 15.542 12.643C15.589 12.684 15.584 12.763 15.579 12.784C15.549 12.913 14.352 14.025 13.733 14.601C13.54 14.781 13.403 14.908 13.375 14.937C13.3133 15 13.2507 15.062 13.187 15.123C12.807 15.489 12.523 15.763 13.202 16.211C13.529 16.427 13.791 16.604 14.052 16.782C14.336 16.976 14.62 17.169 14.988 17.411C15.081 17.471 15.171 17.536 15.258 17.598C15.589 17.834 15.888 18.046 16.255 18.012C16.469 17.992 16.69 17.792 16.802 17.192C17.067 15.775 17.588 12.706 17.708 11.441C17.7153 11.3358 17.711 11.2302 17.695 11.126C17.6856 11.0419 17.6449 10.9645 17.581 10.909C17.49 10.8462 17.3815 10.8136 17.271 10.816C16.971 10.821 16.508 10.982 14.287 11.906Z" fill="#314170"/>
</g>
</g>
<defs>
<clipPath id="clip0_44_20">
<rect width="28" height="28" fill="white"/>
</clipPath>
</defs>
</svg>
