<svg width="20" height="20" viewBox="0 0 20 20" fill="none" xmlns="http://www.w3.org/2000/svg">
<g clip-path="url(#clip0_44_85)">
<mask id="mask0_44_85" style="mask-type:luminance" maskUnits="userSpaceOnUse" x="0" y="0" width="20" height="20">
<path d="M20 0H0V20H20V0Z" fill="white"/>
</mask>
<g mask="url(#mask0_44_85)">
<path d="M9.99999 19.4642C15.227 19.4642 19.4643 15.2269 19.4643 9.99993C19.4643 4.77295 15.227 0.535645 9.99999 0.535645C4.77301 0.535645 0.535706 4.77295 0.535706 9.99993C0.535706 15.2269 4.77301 19.4642 9.99999 19.4642Z" stroke="#FF7979" stroke-width="1.5"/>
<path fill-rule="evenodd" clip-rule="evenodd" d="M15.4524 7.11793C15.5314 6.85793 15.4524 6.6665 15.0738 6.6665H13.8238C13.5057 6.6665 13.359 6.83174 13.2795 7.01412C13.2795 7.01412 12.6438 8.53603 11.7433 9.5246C11.4519 9.81127 11.3195 9.90222 11.1605 9.90222C11.0809 9.90222 10.9614 9.81127 10.9614 9.55079V7.11793C10.9614 6.80555 10.8738 6.6665 10.609 6.6665H8.64332C8.44475 6.6665 8.32523 6.81127 8.32523 6.94888C8.32523 7.2446 8.77571 7.31317 8.8219 8.14555V9.95412C8.8219 10.3508 8.74904 10.4227 8.58999 10.4227C8.16618 10.4227 7.13523 8.89365 6.52332 7.14412C6.40475 6.80365 6.28475 6.6665 5.96523 6.6665H4.71428C4.35713 6.6665 4.28571 6.83174 4.28571 7.01412C4.28571 7.33888 4.70952 8.95222 6.25952 11.086C7.29285 12.5432 8.74761 13.3332 10.0728 13.3332C10.8676 13.3332 10.9657 13.1579 10.9657 12.8556V11.7541C10.9657 11.4032 11.0409 11.3332 11.2928 11.3332C11.4786 11.3332 11.7962 11.4246 12.5381 12.127C13.3857 12.9598 13.5252 13.3332 14.0024 13.3332H15.2524C15.6095 13.3332 15.7886 13.1579 15.6857 12.8113C15.5724 12.4665 15.1676 11.966 14.6309 11.3722C14.3395 11.0341 13.9024 10.6698 13.7695 10.4875C13.5843 10.2536 13.6371 10.1494 13.7695 9.94127C13.7695 9.94127 15.2933 7.83365 15.4519 7.11793H15.4524Z" fill="#FF7979"/>
</g>
</g>
<defs>
<clipPath id="clip0_44_85">
<rect width="20" height="20" fill="white"/>
</clipPath>
</defs>
</svg>
