<svg width="28" height="28" viewBox="0 0 28 28" fill="none" xmlns="http://www.w3.org/2000/svg">
<g clip-path="url(#clip0_44_27)">
<mask id="mask0_44_27" style="mask-type:luminance" maskUnits="userSpaceOnUse" x="0" y="0" width="28" height="28">
<path d="M28 0H0V28H28V0Z" fill="white"/>
</mask>
<g mask="url(#mask0_44_27)">
<path d="M14 27.25C21.3178 27.25 27.25 21.3178 27.25 14C27.25 6.68223 21.3178 0.75 14 0.75C6.68223 0.75 0.75 6.68223 0.75 14C0.75 21.3178 6.68223 27.25 14 27.25Z" stroke="#314170" stroke-width="1.5"/>
<path fill-rule="evenodd" clip-rule="evenodd" d="M21.6333 9.96525C21.744 9.60125 21.6333 9.33325 21.1033 9.33325H19.3533C18.908 9.33325 18.7027 9.56459 18.5913 9.81992C18.5913 9.81992 17.7013 11.9506 16.4407 13.3346C16.0327 13.7359 15.8473 13.8633 15.6247 13.8633C15.5133 13.8633 15.346 13.7359 15.346 13.3713V9.96525C15.346 9.52792 15.2233 9.33325 14.8527 9.33325H12.1007C11.8227 9.33325 11.6553 9.53592 11.6553 9.72859C11.6553 10.1426 12.286 10.2386 12.3507 11.4039V13.9359C12.3507 14.4913 12.2487 14.5919 12.026 14.5919C11.4327 14.5919 9.98933 12.4513 9.13267 10.0019C8.96667 9.52525 8.79867 9.33325 8.35133 9.33325H6.6C6.1 9.33325 6 9.56459 6 9.81992C6 10.2746 6.59333 12.5333 8.76333 15.5206C10.21 17.5606 12.2467 18.6666 14.102 18.6666C15.2147 18.6666 15.352 18.4213 15.352 17.9979V16.4559C15.352 15.9646 15.4573 15.8666 15.81 15.8666C16.07 15.8666 16.5147 15.9946 17.5533 16.9779C18.74 18.1439 18.9353 18.6666 19.6033 18.6666H21.3533C21.8533 18.6666 22.104 18.4213 21.96 17.9359C21.8013 17.4533 21.2347 16.7526 20.4833 15.9213C20.0753 15.4479 19.4633 14.9379 19.2773 14.6826C19.018 14.3553 19.092 14.2093 19.2773 13.9179C19.2773 13.9179 21.4107 10.9673 21.6327 9.96525H21.6333Z" fill="#314170"/>
</g>
</g>
<defs>
<clipPath id="clip0_44_27">
<rect width="28" height="28" fill="white"/>
</clipPath>
</defs>
</svg>
