<svg width="20" height="20" viewBox="0 0 20 20" fill="none" xmlns="http://www.w3.org/2000/svg">
<g clip-path="url(#clip0_44_95)">
<mask id="mask0_44_95" style="mask-type:luminance" maskUnits="userSpaceOnUse" x="0" y="0" width="20" height="20">
<path d="M20 0H0V20H20V0Z" fill="white"/>
</mask>
<g mask="url(#mask0_44_95)">
<path d="M9.99999 19.4642C15.227 19.4642 19.4643 15.2269 19.4643 9.99993C19.4643 4.77295 15.227 0.535645 9.99999 0.535645C4.77301 0.535645 0.535706 4.77295 0.535706 9.99993C0.535706 15.2269 4.77301 19.4642 9.99999 19.4642Z" stroke="#FF7979" stroke-width="1.5"/>
<path d="M4.288 14.9999L5.06057 12.161C4.55151 11.2884 4.28406 10.2959 4.28571 9.28557C4.28571 6.12957 6.844 3.57129 9.99999 3.57129C13.156 3.57129 15.7143 6.12957 15.7143 9.28557C15.7143 12.4416 13.156 14.9999 9.99999 14.9999C8.99013 15.0015 7.99806 14.7342 7.12571 14.2256L4.288 14.9999ZM7.93771 6.60443C7.86392 6.60901 7.79178 6.62845 7.72571 6.66157C7.66371 6.69667 7.60713 6.74056 7.55771 6.79186C7.48913 6.85643 7.45028 6.91243 7.40856 6.96672C7.19735 7.24157 7.08378 7.57893 7.08571 7.92557C7.08686 8.20557 7.15999 8.47815 7.27428 8.733C7.50799 9.24843 7.89256 9.79415 8.40056 10.2999C8.52285 10.4216 8.64228 10.5439 8.77085 10.6576C9.40135 11.2127 10.1527 11.613 10.9651 11.8267L11.2903 11.8764C11.396 11.8821 11.5017 11.8741 11.608 11.869C11.7744 11.8604 11.9369 11.8154 12.084 11.737C12.1588 11.6984 12.2319 11.6565 12.3028 11.6113C12.3028 11.6113 12.3274 11.5953 12.3743 11.5599C12.4514 11.5027 12.4988 11.4621 12.5628 11.3953C12.6103 11.3461 12.6514 11.2884 12.6828 11.2227C12.7274 11.1296 12.772 10.9519 12.7903 10.8039C12.804 10.6907 12.8 10.629 12.7983 10.5907C12.796 10.5296 12.7451 10.4661 12.6897 10.4393L12.3571 10.2901C12.3571 10.2901 11.86 10.0736 11.5566 9.93529C11.5246 9.92136 11.4903 9.91343 11.4554 9.91186C11.4163 9.90786 11.3768 9.91222 11.3396 9.92479C11.3023 9.93729 11.2681 9.95765 11.2394 9.98443V9.98329C11.2366 9.98329 11.1983 10.0159 10.7851 10.5164C10.7614 10.5483 10.7288 10.5724 10.6913 10.5856C10.6538 10.5989 10.6133 10.6006 10.5748 10.5907C10.5376 10.5808 10.5011 10.5681 10.4657 10.553C10.3948 10.5233 10.3703 10.5119 10.3217 10.4907L10.3188 10.4896C9.99192 10.3469 9.68928 10.1541 9.42171 9.91815C9.34971 9.85529 9.28285 9.78672 9.21428 9.72043C8.98949 9.50515 8.79356 9.26157 8.63142 8.99586L8.59771 8.94157C8.57349 8.90507 8.55392 8.86572 8.53942 8.82443C8.51771 8.74043 8.57428 8.673 8.57428 8.673C8.57428 8.673 8.71313 8.521 8.77771 8.43872C8.83149 8.37036 8.88163 8.29922 8.92799 8.22557C8.99542 8.117 9.01656 8.00557 8.98113 7.91929C8.82113 7.52843 8.65542 7.13929 8.48513 6.753C8.45142 6.67643 8.35142 6.62157 8.26056 6.61072C8.22971 6.60729 8.19885 6.60386 8.16799 6.60157C8.09128 6.59776 8.01435 6.5991 7.93771 6.60443Z" fill="#FF7979"/>
</g>
</g>
<defs>
<clipPath id="clip0_44_95">
<rect width="20" height="20" fill="white"/>
</clipPath>
</defs>
</svg>
