<svg width="28" height="28" viewBox="0 0 28 28" fill="none" xmlns="http://www.w3.org/2000/svg">
<g clip-path="url(#clip0_44_13)">
<mask id="mask0_44_13" style="mask-type:luminance" maskUnits="userSpaceOnUse" x="0" y="0" width="28" height="28">
<path d="M28 0H0V28H28V0Z" fill="white"/>
</mask>
<g mask="url(#mask0_44_13)">
<path d="M14 27.25C21.3178 27.25 27.25 21.3178 27.25 14C27.25 6.68223 21.3178 0.75 14 0.75C6.68223 0.75 0.75 6.68223 0.75 14C0.75 21.3178 6.68223 27.25 14 27.25Z" stroke="#314170" stroke-width="1.5"/>
<path d="M6.00321 21L7.08481 17.0256C6.37212 15.8039 5.99769 14.4144 6.00001 13C6.00001 8.5816 9.58161 5 14 5C18.4184 5 22 8.5816 22 13C22 17.4184 18.4184 21 14 21C12.5862 21.0023 11.1973 20.6281 9.97601 19.916L6.00321 21ZM11.1128 9.2464C11.0095 9.25281 10.9085 9.28002 10.816 9.3264C10.7292 9.37554 10.65 9.43698 10.5808 9.5088C10.4848 9.5992 10.4304 9.6776 10.372 9.7536C10.0763 10.1384 9.9173 10.6107 9.92001 11.096C9.92161 11.488 10.024 11.8696 10.184 12.2264C10.5112 12.948 11.0496 13.712 11.7608 14.42C11.932 14.5904 12.0992 14.7616 12.2792 14.9208C13.1619 15.698 14.2138 16.2584 15.3512 16.5576L15.8064 16.6272C15.9544 16.6352 16.1024 16.624 16.2512 16.6168C16.4842 16.6048 16.7117 16.5417 16.9176 16.432C17.0224 16.378 17.1246 16.3193 17.224 16.256C17.224 16.256 17.2584 16.2336 17.324 16.184C17.432 16.104 17.4984 16.0472 17.588 15.9536C17.6544 15.8848 17.712 15.804 17.756 15.712C17.8184 15.5816 17.8808 15.3328 17.9064 15.1256C17.9256 14.9672 17.92 14.8808 17.9176 14.8272C17.9144 14.7416 17.8432 14.6528 17.7656 14.6152L17.3 14.4064C17.3 14.4064 16.604 14.1032 16.1792 13.9096C16.1344 13.8901 16.0864 13.879 16.0376 13.8768C15.9829 13.8712 15.9276 13.8773 15.8754 13.8949C15.8232 13.9124 15.7754 13.9409 15.7352 13.9784V13.9768C15.7312 13.9768 15.6776 14.0224 15.0992 14.7232C15.066 14.7678 15.0203 14.8015 14.9678 14.82C14.9154 14.8386 14.8587 14.8411 14.8048 14.8272C14.7527 14.8133 14.7016 14.7956 14.652 14.7744C14.5528 14.7328 14.5184 14.7168 14.4504 14.6872L14.4464 14.6856C13.9887 14.4858 13.565 14.2159 13.1904 13.8856C13.0896 13.7976 12.996 13.7016 12.9 13.6088C12.5853 13.3074 12.311 12.9664 12.084 12.5944L12.0368 12.5184C12.0029 12.4673 11.9755 12.4122 11.9552 12.3544C11.9248 12.2368 12.004 12.1424 12.004 12.1424C12.004 12.1424 12.1984 11.9296 12.2888 11.8144C12.3641 11.7187 12.4343 11.6191 12.4992 11.516C12.5936 11.364 12.6232 11.208 12.5736 11.0872C12.3496 10.54 12.1176 9.9952 11.8792 9.4544C11.832 9.3472 11.692 9.2704 11.5648 9.2552C11.5216 9.2504 11.4784 9.2456 11.4352 9.2424C11.3278 9.23706 11.2201 9.23893 11.1128 9.2464Z" fill="#314170"/>
</g>
</g>
<defs>
<clipPath id="clip0_44_13">
<rect width="28" height="28" fill="white"/>
</clipPath>
</defs>
</svg>
